# xmcd CD database file
#
# Track frame offsets:
#	150
#	18630
#	40118
#	55478
#	70353
#	83385
#	101253
#	118905
#	136518
#	154090
#
# Disc length: 2287 seconds
#
# Revision: 0
# Processed by: cddbd v1.5.1PL0 Copyright (c) Steve Scherf et al.
# Submitted via: CDex 1.51
#
DISCID=7908ed0a
DTITLE=雪村いづみ - スーパー・ジェネレイション
DYEAR=1974
DGENRE=Pop
TTITLE0=序曲（香港夜曲）
TTITLE1=昔のあなた
TTITLE2=ヘイ ヘイ ブギー
TTITLE3=バラのルムバ
TTITLE4=銀座カンカン娘
TTITLE5=東京ブギウギ
TTITLE6=胸の振子
TTITLE7=一杯のコーヒーから
TTITLE8=蘇州夜曲
TTITLE9=東京の屋根の下
EXTD=YEAR: 1974
EXTT0=
EXTT1=
EXTT2=
EXTT3=
EXTT4=
EXTT5=
EXTT6=
EXTT7=
EXTT8=
EXTT9=
PLAYORDER=
